<svg height="32" viewBox="0 0 28 32" width="28" xmlns="http://www.w3.org/2000/svg" xmlns:xlink="http://www.w3.org/1999/xlink"><linearGradient id="a" x1="33.26213%" x2="73.347135%" y1="3.564657%" y2="101.699705%"><stop offset="0" stop-color="#009ee8"/><stop offset="1" stop-color="#171c60"/></linearGradient><mask id="b" fill="#fff"><path d="m8.02051339 1.82684806c-.34066716.19264285-.46292128.62862403-.27274821.97407756.19017307.34509142.62092221.46893325.96158938.2762904 1.82344514-1.03056681 3.89461574-1.57518118 5.99045164-1.57518118 2.583065 0 5.1546911.84697673 7.2419477 2.38558474 1.5078008 1.11131748 2.6331106 2.34068303 3.3448297 3.65369612.129046.23718246.3706945.37116338.6202073.37116338.1147473 0 .2316394-.02824462.3395948-.0887171.342097-.18974596.4672109-.62536503.2791826-.97190489-.8125252-1.49877584-2.0751027-2.88565951-3.7523434-4.12226726-2.3267603-1.71459377-5.1940126-2.65934037-8.0734187-2.65934037-2.336412 0-4.6456564.6072595-6.67929281 1.7565986zm.14084246 3.31258792c-.31921907.22740547-.39571726.67388786-.17122725.99761475.13762525.19807451.35639577.30381081.57874097.30381081.14048499 0 .28239986-.04236694.40608385-.13035982 1.77733178-1.26738716 3.96575188-1.81996796 6.16239378-1.55454088.3860657.04671227.7396017-.23356135.7857151-.62645137.0461134-.39252791-.2309244-.74884475-.6184199-.79555702-.4157355-.05033338-.831471-.0749569-1.2450617-.0749569-2.1151392 0-4.17236851.64998856-5.89822485 1.88044043zm9.01677715-.68076796c-.1469194.36681806.0268102.78396949.388568.93279695 2.4987025 1.02875626 4.4590579 3.16412257 5.244773 5.71265713.094729.3059834.3735542.5026095.6745424.5026095.0700638 0 .1408425-.0108633.2109062-.03259.3724819-.1184101.5801709-.5199908.4639937-.8973101-.9101139-2.95192571-3.1764621-5.42405489-6.0619452-6.61177772-.0868648-.03584895-.1773043-.05286815-.2659564-.05286815-.2791826 0-.5433516.16838144-.6548817.44648239zm-13.44616528 1.90035652c-.31135477.67280152-.77177378 2.23241195-.79465174 2.3091794-.23521406.84987362-.4504099 1.77072096-.42753194 2.74552266.01036658.4377918.11581969.8324923.20876141 1.1808428.07435338.2777388.14477461.5406311.15692853.7850558.04361112.8701518-.92727244 1.9264285-1.70726799 2.7744915-.25237253.2752041-.49151874.5344753-.69134345.7814347-.12153918.1499138-.4918762.6065353-.39035524 1.1703415.04218124.2360962.18338117.5703243.61484526.8227154.45541445.2665134.94836306.4515519 1.46418963.5511323.04468352.0086907.08936704.0126739.13262069.0126739.33316034 0 .62950146-.238993.69384573-.5822739.0729235-.3881826-.17909156-.762967-.56265491-.8371997-.28561707-.0550408-.56051009-.147379-.82074692-.2762904.16586523-.2006093.37462664-.4276527.5941121-.6662836.96158939-1.0464996 2.15839283-2.3479252 2.08439692-3.823526-.02001822-.3979595-.11760703-.7636912-.20411433-1.0863318-.07900047-.2962065-.15371131-.576118-.16014574-.841183-.01858835-.78578.16979738-1.58133703.37248183-2.31280048.12439893-.42149676.49545089-1.62116923.71672369-2.10024158.16550777-.3581274.01322632-.78396948-.34066717-.9516267-.0965164-.04598805-.1987523-.06807679-.29884339-.06807679-.26559885 0-.52047366.15281068-.64058297.41244399zm9.20087328.22487069c-.3853507.06699047-.6434427.43742963-.5773111.82706065s.4303917.65071278.8160999.58444654c1.8055717-.31503624 3.705515.29403382 5.082125 1.626963 1.3008267 1.25942068 1.9213914 2.99682748 1.7022634 4.76609998-.0228779.1814174-.0518329.373336-.0922268.6040005-.0675615.3889068.1894582.7604323.5737364.8288712.0414664.0076043.0829327.0112254.123684.0112254.3363776 0 .634506-.2444247.6952756-.5916888.0439686-.2542016.0761408-.468209.1018785-.6742499.2756079-2.2237213-.4997405-4.4032651-2.1280081-5.97953264-1.4019901-1.3575527-3.251173-2.1045869-5.1160845-2.1045869-.3942874 0-.7896472.03331418-1.1814323.10139097zm-2.7253373 1.0537419-.1526389.078578c-1.0359428.5319405-2.39289198 1.20872524-3.70301284 1.72690553-.36354513.14375792-.54335162.55909884-.40143675.92736534.10902779.2828083.37605651.4558972.65881384.4558972.08543489 0 .17265713-.0159329.25666215-.0496091 1.36695829-.5402691 2.76358644-1.23660779 3.8277692-1.78303271l.1537113-.07966434c.348174-.17888264.4872291-.60979428.3102824-.96249002-.1247564-.24876999-.3731968-.39180369-.6305739-.39180369-.1075979 0-.2169832.02498564-.3195765.07785379zm2.0865417 2.61443867c-1.8863595.9849409-4.07442223 2.0915509-6.16167889 2.756386-.37212437.1191344-.57909844.5214393-.46184888.8983964.09472906.3052593.37355424.5011611.67418497.5011611.07042123 0 .1415574-.0108633.21197863-.0333142 2.19378217-.6995977 4.44618917-1.8373492 6.38509647-2.8494484.8958153-.4674848 1.988238-.3990459 2.7832472.1741752.3185042.2299403.7596199.1546212.9858972-.1672951.2266349-.3226406.1522815-.7691229-.1655077-.9987011-.6852665-.4946431-1.5120904-.74630995-2.3460636-.74630995-.6516645 0-1.3076186.15389701-1.9053054.46495005zm13.9501954 1.8221406c-.0146561.4979021-.0589822 1.0084781-.1297609 1.5172435-.3017031 2.1567308-1.1074364 4.3532938-2.3292626 6.3514202-.0032172.0050696-.0064344.0101391-.0096517.0148465-.1236839.2143695-.2577345.4283769-.3992919.654696-.5916098.9432982-1.2615052 2.0133351-1.1853645 3.2452354.1647929 2.1701289.8171723 3.0942352 1.5721451 4.1646342l.0475432.0669904c.1379827.1955398.3549659.2998276.5758813.2998276.1419148 0 .2852596-.0434532.4100159-.1336188.3174318-.2295781.3914277-.6767847.1644354-.998339l-.0479007-.0677146c-.7092169-1.0052191-1.1782151-1.6696921-1.3119082-3.4309981-.0468284-.7578976.4461203-1.5454881.9683813-2.3787047.1408424-.2245086.286332-.4566215.4214549-.6898207 1.3215599-2.1636109 2.1944971-4.5484715 2.5230104-6.897483.078643-.5609094.1265437-1.1243535.1433447-1.6747616.011439-.3954248-.2949112-.7256697-.684909-.7376194-.0085792 0-.016801-.0003621-.0250228-.0003621-.3835633 0-.6913434.3077941-.7031399.6945282zm-8.87236.625365c-.3882104.0416428-.6698954.3936143-.629144.7872285.0253803.2429762.0160861.4888493-.027525.7311014-.1426298.7926601-.629144 1.4596678-1.3355011 1.8282965-1.9060203.9965284-4.1319746 2.128124-6.43085246 2.9493909-1.46597698.523612-2.32425806 2.026371-2.0407858 3.5736697.05254782.2857053.11045767.5685137.17766168.8647202.07506832.3316933.36604741.5562019.68812624.5562019.05219035 0 .10545311-.0057938.15871586-.0181056.38070361-.088355.61841994-.4725543.53119771-.85784-.06255693-.2766525-.11689209-.5406312-.16586523-.8064204-.15549866-.8495115.31564439-1.6743995 1.12102019-1.9619153 2.38359781-.851322 4.66102751-2.0089897 6.60887161-3.0272447 1.0992146-.5743075 1.8566897-1.6110302 2.0783199-2.844741.0675615-.3758709.0818602-.7582597.0425387-1.1370274-.0386065-.3682665-.3453142-.6409358-.7034973-.6409358-.0243079 0-.0486157.0010864-.073281.0036211zm6.5248666.3421946c-.3899978 0-.7067146.32083-.7067146.7158927-.0003575.6112427-.0604121 1.2224854-.1790916 1.817071-.0775706.3878205.1697974.7655019.5522883.8437178.0475433.009777.0947291.0144844.1412.0144844.3292282 0 .6244969-.2346477.6917009-.5743074.1376252-.6876481.2073315-1.394488.2073315-2.1006037 0-.3954248-.3163593-.7162548-.7063571-.7162548zm-10.0069641.0800264c-2.7539348 1.4393897-5.68445886 2.8954365-8.5738741 3.5055929-.38177601.0803886-.62735664.4595184-.54764124.8466146.06934882.3378492.36318766.5703242.69098598.5703242.04790073 0 .0965164-.0050695.14513207-.0155707 3.06314478-.6463675 6.09304499-2.1498507 8.93384459-3.6348664.3471016-.1810553.4829395-.6130533.3034905-.9646627-.1254714-.2458731-.3724819-.3874583-.6284291-.3874583-.1090278 0-.2198429.0257098-.3235087.0800264zm6.3060961 4.1783944c-.3903553.0050696-.702425.3298828-.697063.7256697.0146562 1.0772791.1522815 2.1165366.410016 3.0877172.0850774.3197437.370337.5304921.6820493.5304921.0611271 0 .1226116-.0083286.1837386-.0249857.377129-.1024773.600904-.4953673.4997405-.8770319-.2273497-.8567537-.3492464-1.7772389-.3621152-2.7361078-.005362-.3921658-.320649-.7061157-.7067146-.7061157-.0028597 0-.006077 0-.0096516.0003621zm-3.223648 1.4317854c-.3885679.0362111-.674185.3852857-.6384382.7788999.123684 1.3477758.4564869 2.6687553 1.016997 4.0375334.1126024.2755662.375699.4421371.6530943.4421371.090082 0 .1819513-.0177434.270246-.0546787.3606854-.1517244.5315551-.5703242.3821334-.9356939-.504745-1.2347972-.8043033-2.419261-.914761-3.6218303-.0339595-.3708013-.3413821-.6496265-.7031399-.6496265-.0218056 0-.0439686.0010863-.0661316.003259zm-3.1346384 1.4864641c-.3853507.0633693-.6470174.4309116-.5844605.821629.6316463 3.9437467 2.7986183 7.3207903 4.835472 10.1039725.1383402.189746.3521061.2896885.5680169.2896885.146562 0 .2938388-.045988.4203826-.140861.3134996-.235734.3796312-.684027.1469194-1.001598-2.032564-2.7781126-3.9939919-5.8495349-4.5755926-9.4804181-.0561225-.3519715-.3556808-.6018278-.6970629-.6018278-.0375342 0-.0754258.003259-.1136749.0094149zm-11.00858988.8600127c-.38034614.0887171-.61734753.4732786-.52976783.8585643.52261847 2.2957813.60733842 2.7748536.62056475 2.8798657.12153917.9244684.5873202 2.1422464 3.20791938 2.0531672.00536202-.0003621.01072404-.0003621.01644353-.0007242.36819222-.0213645.74460621-.07206 1.10815134-.120945.97910533-.1314461 1.90387549-.2556501 2.63918752.1510002.09186932.0506954.18624089.1010288.28382969.1531727.8325434.4453961 1.7762594.9494541 3.0252532 2.6922925.0489731.0684389.2084039.3052592.6280716 1.0186171.1322632.2248707.3671198.3497989.6076959.3497989.1233265 0 .2477254-.03259.3610428-.1010289.3356626-.2024198.4457628-.64166.2459381-.9813197-.330658-.5616336-.5655146-.9407634-.6984928-1.1272504-1.443099-2.0122487-2.6374002-2.6510118-3.5096225-3.1174103-.0918693-.0488849-.1805214-.0966835-.2670287-.14412-1.14103845-.6304346-2.39467933-.461691-3.50175826-.3132257-.35031881.0474365-.6816918.0919761-.99519139.1100816-1.63327208.0543166-1.69690142-.4048396-1.74944924-.8056961-.02144809-.1727267-.11153007-.6738878-.64523005-3.0178299-.07542579-.3309691-.36568994-.5554776-.6874113-.5554776-.05254782 0-.10652551.0061558-.16014574.0184676zm7.89718688.337125c-.382491.0764053-.6323612.4526383-.5569354.8408208.0936566.4834177.2974135 1.224296.432179 1.7149559l.0271676.0984941c.0872222.3168468.3710519.5243362.6809769.5243362.0625569 0 .1261862-.0086907.1894581-.0264341.375699-.1060984.5962569-.500799.4918762-.8817394l-.0275251-.098494c-.129046-.4696575-.3238661-1.1786701-.4067987-1.6074091-.0668466-.3414703-.3624728-.5779285-.6934883-.5779285-.045041 0-.0907969.0043453-.1369103.0133981zm8.1002288 3.6131397c-.336735.2009714-.4482651.6394874-.2498703.9802335 1.0248613 1.761306 2.3188961 3.460329 3.358771 4.8258481.1390551.1828659.348174.278101.5597951.278101.1512091 0 .3027756-.0485228.4314641-.1488275.3088525-.2418899.3664049-.6912691.1279736-1.0044948-1.2918899-1.6961261-2.3521405-3.1174103-3.2604672-4.677745-.1315483-.2263191-.3671198-.3523336-.6094832-.3523336-.1218966 0-.2452232.0318657-.3581831.0992183z" fill="#fff" fill-rule="evenodd"/></mask><path d="m8.02051339 1.82684806c-.34066716.19264285-.46292128.62862403-.27274821.97407756.19017307.34509142.62092221.46893325.96158938.2762904 1.82344514-1.03056681 3.89461574-1.57518118 5.99045164-1.57518118 2.583065 0 5.1546911.84697673 7.2419477 2.38558474 1.5078008 1.11131748 2.6331106 2.34068303 3.3448297 3.65369612.129046.23718246.3706945.37116338.6202073.37116338.1147473 0 .2316394-.02824462.3395948-.0887171.342097-.18974596.4672109-.62536503.2791826-.97190489-.8125252-1.49877584-2.0751027-2.88565951-3.7523434-4.12226726-2.3267603-1.71459377-5.1940126-2.65934037-8.0734187-2.65934037-2.336412 0-4.6456564.6072595-6.67929281 1.7565986zm.14084246 3.31258792c-.31921907.22740547-.39571726.67388786-.17122725.99761475.13762525.19807451.35639577.30381081.57874097.30381081.14048499 0 .28239986-.04236694.40608385-.13035982 1.77733178-1.26738716 3.96575188-1.81996796 6.16239378-1.55454088.3860657.04671227.7396017-.23356135.7857151-.62645137.0461134-.39252791-.2309244-.74884475-.6184199-.79555702-.4157355-.05033338-.831471-.0749569-1.2450617-.0749569-2.1151392 0-4.17236851.64998856-5.89822485 1.88044043zm9.01677715-.68076796c-.1469194.36681806.0268102.78396949.388568.93279695 2.4987025 1.02875626 4.4590579 3.16412257 5.244773 5.71265713.094729.3059834.3735542.5026095.6745424.5026095.0700638 0 .1408425-.0108633.2109062-.03259.3724819-.1184101.5801709-.5199908.4639937-.8973101-.9101139-2.95192571-3.1764621-5.42405489-6.0619452-6.61177772-.0868648-.03584895-.1773043-.05286815-.2659564-.05286815-.2791826 0-.5433516.16838144-.6548817.44648239zm-13.44616528 1.90035652c-.31135477.67280152-.77177378 2.23241195-.79465174 2.3091794-.23521406.84987362-.4504099 1.77072096-.42753194 2.74552266.01036658.4377918.11581969.8324923.20876141 1.1808428.07435338.2777388.14477461.5406311.15692853.7850558.04361112.8701518-.92727244 1.9264285-1.70726799 2.7744915-.25237253.2752041-.49151874.5344753-.69134345.7814347-.12153918.1499138-.4918762.6065353-.39035524 1.1703415.04218124.2360962.18338117.5703243.61484526.8227154.45541445.2665134.94836306.4515519 1.46418963.5511323.04468352.0086907.08936704.0126739.13262069.0126739.33316034 0 .62950146-.238993.69384573-.5822739.0729235-.3881826-.17909156-.762967-.56265491-.8371997-.28561707-.0550408-.56051009-.147379-.82074692-.2762904.16586523-.2006093.37462664-.4276527.5941121-.6662836.96158939-1.0464996 2.15839283-2.3479252 2.08439692-3.823526-.02001822-.3979595-.11760703-.7636912-.20411433-1.0863318-.07900047-.2962065-.15371131-.576118-.16014574-.841183-.01858835-.78578.16979738-1.58133703.37248183-2.31280048.12439893-.42149676.49545089-1.62116923.71672369-2.10024158.16550777-.3581274.01322632-.78396948-.34066717-.9516267-.0965164-.04598805-.1987523-.06807679-.29884339-.06807679-.26559885 0-.52047366.15281068-.64058297.41244399zm9.20087328.22487069c-.3853507.06699047-.6434427.43742963-.5773111.82706065s.4303917.65071278.8160999.58444654c1.8055717-.31503624 3.705515.29403382 5.082125 1.626963 1.3008267 1.25942068 1.9213914 2.99682748 1.7022634 4.76609998-.0228779.1814174-.0518329.373336-.0922268.6040005-.0675615.3889068.1894582.7604323.5737364.8288712.0414664.0076043.0829327.0112254.123684.0112254.3363776 0 .634506-.2444247.6952756-.5916888.0439686-.2542016.0761408-.468209.1018785-.6742499.2756079-2.2237213-.4997405-4.4032651-2.1280081-5.97953264-1.4019901-1.3575527-3.251173-2.1045869-5.1160845-2.1045869-.3942874 0-.7896472.03331418-1.1814323.10139097zm-2.7253373 1.0537419-.1526389.078578c-1.0359428.5319405-2.39289198 1.20872524-3.70301284 1.72690553-.36354513.14375792-.54335162.55909884-.40143675.92736534.10902779.2828083.37605651.4558972.65881384.4558972.08543489 0 .17265713-.0159329.25666215-.0496091 1.36695829-.5402691 2.76358644-1.23660779 3.8277692-1.78303271l.1537113-.07966434c.348174-.17888264.4872291-.60979428.3102824-.96249002-.1247564-.24876999-.3731968-.39180369-.6305739-.39180369-.1075979 0-.2169832.02498564-.3195765.07785379zm2.0865417 2.61443867c-1.8863595.9849409-4.07442223 2.0915509-6.16167889 2.756386-.37212437.1191344-.57909844.5214393-.46184888.8983964.09472906.3052593.37355424.5011611.67418497.5011611.07042123 0 .1415574-.0108633.21197863-.0333142 2.19378217-.6995977 4.44618917-1.8373492 6.38509647-2.8494484.8958153-.4674848 1.988238-.3990459 2.7832472.1741752.3185042.2299403.7596199.1546212.9858972-.1672951.2266349-.3226406.1522815-.7691229-.1655077-.9987011-.6852665-.4946431-1.5120904-.74630995-2.3460636-.74630995-.6516645 0-1.3076186.15389701-1.9053054.46495005zm13.9501954 1.8221406c-.0146561.4979021-.0589822 1.0084781-.1297609 1.5172435-.3017031 2.1567308-1.1074364 4.3532938-2.3292626 6.3514202-.0032172.0050696-.0064344.0101391-.0096517.0148465-.1236839.2143695-.2577345.4283769-.3992919.654696-.5916098.9432982-1.2615052 2.0133351-1.1853645 3.2452354.1647929 2.1701289.8171723 3.0942352 1.5721451 4.1646342l.0475432.0669904c.1379827.1955398.3549659.2998276.5758813.2998276.1419148 0 .2852596-.0434532.4100159-.1336188.3174318-.2295781.3914277-.6767847.1644354-.998339l-.0479007-.0677146c-.7092169-1.0052191-1.1782151-1.6696921-1.3119082-3.4309981-.0468284-.7578976.4461203-1.5454881.9683813-2.3787047.1408424-.2245086.286332-.4566215.4214549-.6898207 1.3215599-2.1636109 2.1944971-4.5484715 2.5230104-6.897483.078643-.5609094.1265437-1.1243535.1433447-1.6747616.011439-.3954248-.2949112-.7256697-.684909-.7376194-.0085792 0-.016801-.0003621-.0250228-.0003621-.3835633 0-.6913434.3077941-.7031399.6945282zm-8.87236.625365c-.3882104.0416428-.6698954.3936143-.629144.7872285.0253803.2429762.0160861.4888493-.027525.7311014-.1426298.7926601-.629144 1.4596678-1.3355011 1.8282965-1.9060203.9965284-4.1319746 2.128124-6.43085246 2.9493909-1.46597698.523612-2.32425806 2.026371-2.0407858 3.5736697.05254782.2857053.11045767.5685137.17766168.8647202.07506832.3316933.36604741.5562019.68812624.5562019.05219035 0 .10545311-.0057938.15871586-.0181056.38070361-.088355.61841994-.4725543.53119771-.85784-.06255693-.2766525-.11689209-.5406312-.16586523-.8064204-.15549866-.8495115.31564439-1.6743995 1.12102019-1.9619153 2.38359781-.851322 4.66102751-2.0089897 6.60887161-3.0272447 1.0992146-.5743075 1.8566897-1.6110302 2.0783199-2.844741.0675615-.3758709.0818602-.7582597.0425387-1.1370274-.0386065-.3682665-.3453142-.6409358-.7034973-.6409358-.0243079 0-.0486157.0010864-.073281.0036211zm6.5248666.3421946c-.3899978 0-.7067146.32083-.7067146.7158927-.0003575.6112427-.0604121 1.2224854-.1790916 1.817071-.0775706.3878205.1697974.7655019.5522883.8437178.0475433.009777.0947291.0144844.1412.0144844.3292282 0 .6244969-.2346477.6917009-.5743074.1376252-.6876481.2073315-1.394488.2073315-2.1006037 0-.3954248-.3163593-.7162548-.7063571-.7162548zm-10.0069641.0800264c-2.7539348 1.4393897-5.68445886 2.8954365-8.5738741 3.5055929-.38177601.0803886-.62735664.4595184-.54764124.8466146.06934882.3378492.36318766.5703242.69098598.5703242.04790073 0 .0965164-.0050695.14513207-.0155707 3.06314478-.6463675 6.09304499-2.1498507 8.93384459-3.6348664.3471016-.1810553.4829395-.6130533.3034905-.9646627-.1254714-.2458731-.3724819-.3874583-.6284291-.3874583-.1090278 0-.2198429.0257098-.3235087.0800264zm6.3060961 4.1783944c-.3903553.0050696-.702425.3298828-.697063.7256697.0146562 1.0772791.1522815 2.1165366.410016 3.0877172.0850774.3197437.370337.5304921.6820493.5304921.0611271 0 .1226116-.0083286.1837386-.0249857.377129-.1024773.600904-.4953673.4997405-.8770319-.2273497-.8567537-.3492464-1.7772389-.3621152-2.7361078-.005362-.3921658-.320649-.7061157-.7067146-.7061157-.0028597 0-.006077 0-.0096516.0003621zm-3.223648 1.4317854c-.3885679.0362111-.674185.3852857-.6384382.7788999.123684 1.3477758.4564869 2.6687553 1.016997 4.0375334.1126024.2755662.375699.4421371.6530943.4421371.090082 0 .1819513-.0177434.270246-.0546787.3606854-.1517244.5315551-.5703242.3821334-.9356939-.504745-1.2347972-.8043033-2.419261-.914761-3.6218303-.0339595-.3708013-.3413821-.6496265-.7031399-.6496265-.0218056 0-.0439686.0010863-.0661316.003259zm-3.1346384 1.4864641c-.3853507.0633693-.6470174.4309116-.5844605.821629.6316463 3.9437467 2.7986183 7.3207903 4.835472 10.1039725.1383402.189746.3521061.2896885.5680169.2896885.146562 0 .2938388-.045988.4203826-.140861.3134996-.235734.3796312-.684027.1469194-1.001598-2.032564-2.7781126-3.9939919-5.8495349-4.5755926-9.4804181-.0561225-.3519715-.3556808-.6018278-.6970629-.6018278-.0375342 0-.0754258.003259-.1136749.0094149zm-11.00858988.8600127c-.38034614.0887171-.61734753.4732786-.52976783.8585643.52261847 2.2957813.60733842 2.7748536.62056475 2.8798657.12153917.9244684.5873202 2.1422464 3.20791938 2.0531672.00536202-.0003621.01072404-.0003621.01644353-.0007242.36819222-.0213645.74460621-.07206 1.10815134-.120945.97910533-.1314461 1.90387549-.2556501 2.63918752.1510002.09186932.0506954.18624089.1010288.28382969.1531727.8325434.4453961 1.7762594.9494541 3.0252532 2.6922925.0489731.0684389.2084039.3052592.6280716 1.0186171.1322632.2248707.3671198.3497989.6076959.3497989.1233265 0 .2477254-.03259.3610428-.1010289.3356626-.2024198.4457628-.64166.2459381-.9813197-.330658-.5616336-.5655146-.9407634-.6984928-1.1272504-1.443099-2.0122487-2.6374002-2.6510118-3.5096225-3.1174103-.0918693-.0488849-.1805214-.0966835-.2670287-.14412-1.14103845-.6304346-2.39467933-.461691-3.50175826-.3132257-.35031881.0474365-.6816918.0919761-.99519139.1100816-1.63327208.0543166-1.69690142-.4048396-1.74944924-.8056961-.02144809-.1727267-.11153007-.6738878-.64523005-3.0178299-.07542579-.3309691-.36568994-.5554776-.6874113-.5554776-.05254782 0-.10652551.0061558-.16014574.0184676zm7.89718688.337125c-.382491.0764053-.6323612.4526383-.5569354.8408208.0936566.4834177.2974135 1.224296.432179 1.7149559l.0271676.0984941c.0872222.3168468.3710519.5243362.6809769.5243362.0625569 0 .1261862-.0086907.1894581-.0264341.375699-.1060984.5962569-.500799.4918762-.8817394l-.0275251-.098494c-.129046-.4696575-.3238661-1.1786701-.4067987-1.6074091-.0668466-.3414703-.3624728-.5779285-.6934883-.5779285-.045041 0-.0907969.0043453-.1369103.0133981zm8.1002288 3.6131397c-.336735.2009714-.4482651.6394874-.2498703.9802335 1.0248613 1.761306 2.3188961 3.460329 3.358771 4.8258481.1390551.1828659.348174.278101.5597951.278101.1512091 0 .3027756-.0485228.4314641-.1488275.3088525-.2418899.3664049-.6912691.1279736-1.0044948-1.2918899-1.6961261-2.3521405-3.1174103-3.2604672-4.677745-.1315483-.2263191-.3671198-.3523336-.6094832-.3523336-.1218966 0-.2452232.0318657-.3581831.0992183z" fill="url(#a)" fill-rule="evenodd" mask="url(#b)"/></svg>